<svg width="943" height="732" viewBox="0 0 943 732" fill="none" xmlns="http://www.w3.org/2000/svg">
<path d="M896.791 1.917C919.057 6.45035 934.257 22.717 940.524 48.717C943.857 62.717 942.791 109.384 938.791 128.584C935.457 143.784 925.724 174.584 920.391 186.05C919.612 187.831 918.717 189.843 917.861 191.768L917.851 191.79C916.659 194.47 915.544 196.978 914.924 198.45C911.057 207.517 893.591 240.984 888.257 249.384L887.915 249.983C886.454 252.537 885.191 254.746 885.191 255.117C885.191 255.65 883.724 257.917 881.857 260.317C879.991 262.717 878.524 265.117 878.524 265.65C878.524 268.317 847.457 313.117 838.657 323.117C836.791 325.25 833.724 328.85 832.124 331.117C827.724 336.85 803.857 360.984 790.524 373.117C755.191 405.517 725.991 421.117 700.524 421.384C680.124 421.65 666.524 414.984 654.391 398.85C647.057 389.25 643.457 379.25 640.391 360.184C638.257 347.917 638.257 344.317 639.724 330.05C643.324 294.984 653.191 263.917 671.857 228.584C685.591 202.45 694.791 188.85 707.857 175.517C716.124 167.117 721.057 165.117 734.257 165.117C741.724 165.117 743.191 165.517 746.524 168.85C751.057 173.384 753.724 182.317 752.391 188.184C751.457 192.584 748.791 197.384 744.791 201.784C741.991 204.85 719.857 237.784 719.857 238.85C719.857 239.25 717.857 243.117 715.324 247.384C709.457 257.65 701.857 279.784 696.391 303.117C693.457 316.05 692.257 342.45 694.524 349.117C696.924 356.45 709.591 367.784 715.324 367.784C718.524 367.784 743.991 349.917 757.591 338.05C785.591 313.65 816.524 276.45 830.657 250.317C832.391 247.117 834.524 243.517 835.457 242.45C840.791 235.65 869.324 181.384 874.124 168.45C874.773 166.666 875.718 164.388 876.569 162.337C877.116 161.017 877.625 159.79 877.991 158.85C882.391 148.984 889.324 123.384 891.324 109.917C894.257 89.7837 893.591 61.2503 889.857 53.7837L887.191 48.4504L877.857 48.5837C869.724 48.5837 867.191 49.3837 857.857 54.0503C851.991 57.117 840.791 64.0503 833.057 69.6503C825.191 75.2503 818.257 79.7837 817.724 79.7837C817.057 79.7837 813.591 81.2503 809.991 83.117C802.791 86.717 800.524 87.117 798.124 85.117C797.191 84.317 795.324 82.8503 793.991 81.917C790.657 79.6503 790.791 70.9837 794.257 61.6503C803.457 36.9837 839.324 8.05033 868.391 1.78367C879.324 -0.616327 884.791 -0.616327 896.791 1.917Z" fill="#e97f3b"/>
<path d="M517.724 61.7837C519.991 62.8503 523.057 65.917 524.391 68.4504C529.191 77.2503 525.057 90.717 509.191 118.45C506.124 123.917 501.857 131.65 499.724 135.517C494.391 145.117 477.191 174.85 475.857 176.45C474.828 177.736 473.427 180.263 466.03 193.603L465.191 195.117C462.791 199.517 460.391 203.65 459.857 204.45C458.791 205.784 457.457 208.184 449.191 223.117C446.791 227.517 443.724 232.717 442.391 234.717C440.924 236.584 439.857 238.584 439.857 238.984C439.857 239.517 438.257 242.317 436.391 245.384C428.124 258.317 398.657 310.984 399.191 311.517C399.457 311.917 406.924 309.917 415.457 307.117C479.991 286.584 503.991 279.517 541.191 270.45C573.457 262.584 579.991 261.25 593.857 259.517C608.524 257.784 611.857 258.05 613.991 260.717C616.391 263.917 616.391 271.117 613.857 273.65C611.724 275.65 599.591 279.917 576.257 286.45C568.791 288.584 559.591 291.917 555.591 293.65C549.457 296.584 524.924 305.517 497.857 314.717C493.457 316.184 483.857 319.65 476.524 322.45C469.191 325.25 457.191 329.384 449.857 331.784C442.524 334.184 432.124 338.05 426.657 340.584C421.191 343.117 416.124 345.117 415.191 345.117C414.257 345.117 409.991 346.984 405.724 349.117C387.724 358.45 366.924 365.117 356.124 365.117C345.457 365.117 337.191 360.317 333.724 351.917C331.591 346.717 331.191 334.984 333.191 333.784C333.991 333.384 334.524 332.05 334.524 330.85C334.524 329.65 340.391 320.584 347.591 310.584C359.724 293.65 371.857 275.384 371.857 273.917C371.857 273.517 375.191 266.984 379.324 259.517C381.937 254.713 384.816 249.536 386.984 245.636L387 245.608C388.255 243.351 389.271 241.525 389.857 240.45C391.457 237.517 396.124 229.25 400.257 222.05C404.391 214.85 407.857 208.717 407.857 208.317C407.857 207.917 408.924 205.917 410.391 204.05C411.724 202.05 414.257 197.784 416.124 194.45C423.457 181.517 434.791 162.184 446.524 143.117C449.843 137.716 453.796 131.235 457.549 125.085L457.582 125.031L457.59 125.017C461.511 118.591 465.207 112.532 467.724 108.45C482.657 83.517 494.924 66.0503 499.724 62.8503C504.924 59.2503 511.591 58.9837 517.724 61.7837Z" fill="#e97f3b"/>
<path d="M787.191 97.7837C790.924 101.384 791.191 102.717 789.057 106.85C787.057 110.584 785.324 111.784 781.324 111.784C773.724 111.784 769.991 100.85 776.124 96.5837C780.391 93.6503 783.457 93.917 787.191 97.7837Z" fill="#e97f3b"/>
<path d="M380.524 118.984C387.457 123.117 391.857 130.184 391.857 137.117C391.857 142.984 387.324 153.517 381.991 159.917C379.991 162.45 309.057 234.184 224.391 319.25C84.7906 459.784 63.8572 481.384 63.8572 485.117C63.8572 486.717 98.7906 477.65 199.191 449.784C326.924 414.45 381.991 400.85 436.524 391.784C437.908 391.535 439.434 391.268 440.995 390.994C445.301 390.24 449.882 389.437 452.524 388.85C461.191 387.25 497.057 385.784 501.724 386.984C507.857 388.584 509.724 400.85 504.124 403.117C500.657 404.584 486.791 407.517 465.191 411.517C414.657 420.984 331.724 441.784 216.524 474.05C208.169 476.329 199.274 478.81 193.448 480.435C191.092 481.093 189.237 481.61 188.124 481.917C186.464 482.36 182.713 483.377 177.759 484.72L177.687 484.74C170.713 486.631 161.373 489.163 152.124 491.65C85.4572 509.917 53.4572 516.984 31.1906 518.05C19.8572 518.584 15.4572 518.317 11.8572 516.717C4.25724 513.384 0.790561 508.717 0.123904 500.717C-1.07611 486.317 5.45723 478.05 63.7239 419.25C94.7906 388.05 114.257 368.984 157.724 327.784C163.591 322.317 170.524 315.65 173.057 313.117C175.489 310.807 185.569 301.07 196.223 290.779L199.324 287.784C211.057 276.45 225.991 262.05 232.657 255.784C278.391 212.584 294.124 197.384 317.191 174.05C331.457 159.517 343.324 147.117 343.591 146.45C343.991 145.517 337.057 146.85 307.191 153.917C276.791 161.117 203.324 178.984 153.857 191.25C122.924 198.85 106.791 202.184 95.1906 203.117C83.1906 204.184 79.3239 202.317 78.7906 195.517C78.1239 187.784 80.1239 185.65 91.4572 181.917C108.657 176.317 286.124 132.184 325.857 123.65C347.724 118.984 354.657 117.117 356.524 115.384C358.924 113.117 374.524 115.517 380.524 118.984Z" fill="#e97f3b"/>
<path d="M914.524 332.184C914.524 333.25 904.791 343.25 892.924 354.45C826.924 416.317 780.524 470.85 726.124 550.45C716.924 564.05 706.524 578.05 703.191 581.517C698.124 586.85 696.524 587.784 692.124 587.784C688.391 587.784 686.124 586.85 683.857 584.45C679.324 579.65 674.924 561.384 672.524 536.584C669.591 507.917 669.324 505.784 667.724 507.384C666.924 508.184 661.724 522.45 655.991 539.25C644.124 574.05 632.657 602.584 629.457 605.517C628.257 606.45 626.124 607.784 624.924 608.184C621.991 609.25 615.857 604.317 615.857 600.984C615.857 599.65 619.457 589.917 623.991 579.517C630.924 563.117 659.457 480.584 663.724 464.317C665.724 456.85 669.857 451.784 673.991 451.784C679.991 451.784 680.657 455.384 685.857 509.784C689.457 547.517 690.657 554.45 693.057 554.45C694.257 554.45 698.257 550.05 701.857 544.584C714.524 526.184 760.257 470.184 782.657 445.917C808.924 417.384 820.657 405.384 837.457 390.184C855.057 374.317 875.724 356.984 883.857 351.384C885.724 350.184 892.924 344.984 899.857 339.784C906.791 334.717 912.924 330.45 913.591 330.45C914.124 330.45 914.524 331.25 914.524 332.184Z" fill="#e97f3b"/>
<path d="M468.657 457.65C471.191 464.184 443.724 494.317 381.191 553.65C361.724 572.05 338.257 593.917 329.191 602.317C302.657 626.584 299.591 628.184 292.257 621.917C288.657 618.717 288.524 618.184 288.791 606.85C289.191 583.25 306.524 494.717 312.657 485.384C314.257 482.984 315.724 482.45 318.791 482.717C325.324 483.384 325.591 487.384 321.057 508.05C315.057 535.25 307.724 577.117 308.124 581.517C308.391 583.784 309.191 585.784 309.991 586.05C310.791 586.317 319.191 580.05 328.524 572.184C337.991 564.317 347.724 556.05 350.391 553.784C365.057 541.517 413.991 500.05 416.391 497.784C416.847 497.328 418.647 495.788 421.049 493.732L421.053 493.729C422.863 492.181 425.014 490.34 427.191 488.45C432.257 484.05 442.391 474.85 449.724 468.05C462.391 456.184 467.057 453.65 468.657 457.65Z" fill="#e97f3b"/>
<path fill-rule="evenodd" clip-rule="evenodd" d="M500.391 472.45C500.857 473.942 501.323 475.694 501.652 476.932C501.717 477.175 501.776 477.399 501.829 477.597C501.893 477.832 501.947 478.031 501.991 478.184C502.391 479.517 503.591 479.384 507.457 477.65C521.591 471.517 528.524 469.917 542.524 469.917C555.191 469.784 557.324 470.184 564.924 473.65C590.791 485.65 605.724 525.65 595.857 557.384C587.591 584.184 557.591 603.784 513.457 611.117C500.657 613.25 487.191 613.384 461.324 611.384C457.191 611.117 456.791 611.517 454.257 617.784C450.124 628.05 428.257 687.65 421.057 708.45C414.524 727.117 411.591 731.784 406.391 731.784C405.057 731.784 402.924 730.184 401.591 728.317C399.457 724.984 399.457 724.184 401.457 716.584C403.991 706.984 419.857 662.05 432.524 629.117C437.324 616.317 447.324 588.717 454.657 567.784C461.628 547.885 468.479 528.709 470.284 523.655L470.524 522.984C471.857 519.117 473.991 512.584 475.057 508.184C477.591 498.317 488.257 473.784 491.324 470.184C494.657 466.584 498.924 467.65 500.391 472.45ZM492.257 508.85C496.657 500.85 512.124 491.384 527.724 486.984C536.391 484.717 547.591 484.717 554.924 487.25C571.724 492.984 583.991 517.517 582.124 541.517C580.124 565.917 559.057 583.784 521.724 592.45C509.057 595.517 488.257 597.25 478.124 596.317C470.391 595.517 468.657 594.85 466.924 592.184C464.791 588.984 465.191 587.384 477.057 551.25C483.991 530.717 490.791 511.517 492.257 508.85Z" fill="#e97f3b"/>
</svg>
