<svg width="24" height="24" viewBox="0 0 24 24" fill="none" xmlns="http://www.w3.org/2000/svg">
<path d="M15.15 12.9C18.3809 12.9 21 12.0942 21 11.1C21 10.1059 18.3809 9.30005 15.15 9.30005C11.9191 9.30005 9.29999 10.1059 9.29999 11.1C9.29999 12.0942 11.9191 12.9 15.15 12.9Z" stroke="#D7D8DB" stroke-width="2" stroke-linecap="round" stroke-linejoin="round"/>
<path d="M21 15.15C21 16.1445 18.381 16.95 15.15 16.95C11.919 16.95 9.29999 16.1445 9.29999 15.15" stroke="#D7D8DB" stroke-width="2" stroke-linecap="round" stroke-linejoin="round"/>
<path d="M21 11.1V19.02C21 20.1135 18.381 21 15.15 21C11.919 21 9.29999 20.1135 9.29999 19.02V11.1" stroke="#D7D8DB" stroke-width="2" stroke-linecap="round" stroke-linejoin="round"/>
<path d="M8.85 6.6C12.0809 6.6 14.7 5.79411 14.7 4.8C14.7 3.80589 12.0809 3 8.85 3C5.61913 3 3 3.80589 3 4.8C3 5.79411 5.61913 6.6 8.85 6.6Z" stroke="#D7D8DB" stroke-width="2" stroke-linecap="round" stroke-linejoin="round"/>
<path d="M6.6 11.1C4.8972 10.893 3.333 10.3575 3 9.30005M6.6 15.6C4.8972 15.393 3.333 14.8575 3 13.8" stroke="#D7D8DB" stroke-width="2" stroke-linecap="round" stroke-linejoin="round"/>
<path d="M6.6 20.1C4.8972 19.893 3.333 19.3566 3 18.3V4.80005M14.7 6.60005V4.80005" stroke="#D7D8DB" stroke-width="2" stroke-linecap="round" stroke-linejoin="round"/>
</svg>
