<svg width="24" height="24" viewBox="0 0 24 24" fill="none" xmlns="http://www.w3.org/2000/svg">
<path fill-rule="evenodd" clip-rule="evenodd" d="M2.04709 5.08789C2.71754 4.39133 3.62685 4 4.575 4H19.425C19.8945 4 20.3594 4.09607 20.7931 4.28273C21.2268 4.46939 21.6209 4.74299 21.9529 5.08789C22.2849 5.43279 22.5482 5.84225 22.7279 6.29289C22.9075 6.74353 23 7.22652 23 7.71429V16.2857C23 16.7735 22.9075 17.2565 22.7279 17.7071C22.5482 18.1577 22.2849 18.5672 21.9529 18.9121C21.6209 19.257 21.2268 19.5306 20.7931 19.7173C20.3594 19.9039 19.8945 20 19.425 20H4.575C3.62685 20 2.71754 19.6087 2.04709 18.9121C1.37665 18.2155 1 17.2708 1 16.2857V7.71429C1 6.7292 1.37665 5.78445 2.04709 5.08789ZM6.5 10.7886L5.708 9.96571C5.55161 9.81431 5.34476 9.73188 5.13103 9.7358C4.91729 9.73972 4.71337 9.82968 4.56222 9.98672C4.41106 10.1438 4.32448 10.3556 4.32071 10.5777C4.31694 10.7997 4.39627 11.0147 4.542 11.1771L5.334 12L4.542 12.8229C4.39627 12.9853 4.31694 13.2003 4.32071 13.4223C4.32448 13.6444 4.41106 13.8562 4.56222 14.0133C4.71337 14.1703 4.91729 14.2603 5.13103 14.2642C5.34476 14.2681 5.55161 14.1857 5.708 14.0343L6.5 13.2114L7.292 14.0343C7.3687 14.1139 7.45975 14.177 7.55995 14.2201C7.66014 14.2632 7.76751 14.2853 7.87594 14.2853C7.98437 14.2852 8.09172 14.263 8.19187 14.2198C8.29203 14.1766 8.38302 14.1134 8.45965 14.0337C8.53628 13.954 8.59706 13.8594 8.6385 13.7553C8.67995 13.6512 8.70125 13.5397 8.7012 13.427C8.70115 13.3144 8.67975 13.2028 8.63821 13.0988C8.59667 12.9947 8.53581 12.9002 8.4591 12.8206L7.6671 12L8.458 11.1771C8.53906 11.0987 8.60407 11.004 8.64916 10.8989C8.69425 10.7938 8.7185 10.6803 8.72045 10.5652C8.72241 10.4501 8.70203 10.3358 8.66054 10.229C8.61904 10.1223 8.55728 10.0253 8.47894 9.94396C8.4006 9.86256 8.30728 9.7984 8.20456 9.75529C8.10183 9.71218 7.9918 9.69101 7.88103 9.69304C7.77025 9.69507 7.66101 9.72026 7.55981 9.76711C7.45861 9.81396 7.36753 9.8815 7.292 9.96571L6.5 10.7886ZM12.55 10.7886L11.758 9.96571C11.6016 9.81431 11.3948 9.73188 11.181 9.7358C10.9673 9.73972 10.7634 9.82968 10.6122 9.98672C10.4611 10.1438 10.3745 10.3556 10.3707 10.5777C10.3669 10.7997 10.4463 11.0147 10.592 11.1771L11.384 12L10.592 12.8229C10.5109 12.9013 10.4459 12.996 10.4008 13.1011C10.3558 13.2062 10.3315 13.3197 10.3295 13.4348C10.3276 13.5499 10.348 13.6642 10.3895 13.771C10.431 13.8777 10.4927 13.9747 10.5711 14.056C10.6494 14.1374 10.7427 14.2016 10.8454 14.2447C10.9482 14.2878 11.0582 14.309 11.169 14.307C11.2797 14.3049 11.389 14.2797 11.4902 14.2329C11.5914 14.186 11.6825 14.1185 11.758 14.0343L12.55 13.2114L13.342 14.0331C13.4968 14.1939 13.7067 14.2843 13.9255 14.2843C14.1444 14.2843 14.3543 14.1939 14.5091 14.0331C14.6639 13.8723 14.7508 13.6543 14.7508 13.4269C14.7508 13.1995 14.6639 12.9814 14.5091 12.8206L13.7171 12L14.508 11.1771C14.5891 11.0987 14.6541 11.004 14.6992 10.8989C14.7443 10.7938 14.7685 10.6803 14.7705 10.5652C14.7724 10.4501 14.752 10.3358 14.7105 10.229C14.669 10.1223 14.6073 10.0253 14.5289 9.94396C14.4506 9.86256 14.3573 9.7984 14.2546 9.75529C14.1518 9.71218 14.0418 9.69101 13.931 9.69304C13.8203 9.69507 13.711 9.72026 13.6098 9.76711C13.5086 9.81396 13.4175 9.8815 13.342 9.96571L12.55 10.7886ZM16.3666 13.9653C16.2119 14.1261 16.125 14.3441 16.125 14.5714C16.125 14.7988 16.2119 15.0168 16.3666 15.1775C16.5214 15.3383 16.7312 15.4286 16.95 15.4286H18.875C19.0938 15.4286 19.3036 15.3383 19.4584 15.1775C19.6131 15.0168 19.7 14.7988 19.7 14.5714C19.7 14.3441 19.6131 14.1261 19.4584 13.9653C19.3036 13.8046 19.0938 13.7143 18.875 13.7143H16.95C16.7312 13.7143 16.5214 13.8046 16.3666 13.9653ZM5.09998 5.14271C3.44312 5.14271 2.09998 6.48585 2.09998 8.14271V15.857C2.09998 17.5138 3.44312 18.857 5.09998 18.857H18.9C20.5568 18.857 21.9 17.5138 21.9 15.857V8.14271C21.9 6.48585 20.5568 5.14271 18.9 5.14271H5.09998Z" fill="#D9D9D9"/>
</svg>