<svg width="800" height="800" viewBox="0 0 800 800" fill="none" xmlns="http://www.w3.org/2000/svg">
<path fill-rule="evenodd" clip-rule="evenodd" d="M469.78 435.653C461.311 451.609 452.651 467.06 443.869 481.946C436.494 485.211 429.153 488.378 421.857 491.446C421.981 490.24 422.044 489.016 422.044 487.777V408.369C441.962 396.366 455.287 374.503 455.287 349.521C455.287 311.622 424.619 280.898 386.787 280.898C348.956 280.898 318.287 311.622 318.287 349.521C318.287 374.503 331.612 396.366 351.53 408.369V487.777C351.53 498.324 356.144 507.792 363.461 514.264C302.088 536.403 245.785 550.802 200.091 557.059C166.869 561.608 141.875 561.478 125.519 558.44C125.378 558.414 125.237 558.388 125.098 558.361C123.303 555.115 121.556 551.816 119.861 548.466C108.018 525.062 98.6886 499.11 92.9007 470.373C88.6295 449.167 86.2871 426.444 86.2871 402.109V349.278C86.2871 241.998 86.2871 188.358 98.8921 170.313C111.301 152.548 160.138 135.54 257.429 102.073C242.21 107.308 262.077 100.474 262.077 100.474L281.202 93.8963L281.21 93.8937C333.534 75.8965 359.697 66.8979 386.787 66.8979C407.581 66.8979 427.828 72.1996 459.78 82.8031C467.036 85.211 474.896 87.8924 483.503 90.8472C486.371 91.832 489.323 92.8473 492.363 93.8929L492.364 93.8931L492.373 93.8963L492.374 93.8964L511.498 100.474L511.499 100.475L511.502 100.476C531.698 107.422 549.863 113.67 566.098 119.366C568.245 136.283 567.17 160.823 561.271 192.523C549.014 258.4 517.884 345.014 469.78 435.653ZM636.979 146.212C636.379 164.538 633.99 184.414 630.102 205.307C618.228 269.127 591.549 346.707 552.476 427.357C599.272 400.697 638.965 373.421 669.054 347.934C675.737 342.274 681.808 336.817 687.285 331.591C687.277 312.595 687.245 295.449 687.104 280.037C686.836 250.705 686.175 227.648 684.549 210.044C682.733 190.373 679.711 177.511 674.683 170.313C669.299 162.605 657.059 155.04 636.979 146.212ZM686.677 423.38C635.371 462.093 568.438 501.642 492.574 536.736C452.338 602.098 409.419 657.486 368.882 697.507C356.985 709.252 345.089 719.878 333.33 729.121C348.321 734.972 361.469 737.898 386.787 737.898C420.817 737.898 432.861 732.612 456.943 722.042L456.951 722.039C542.357 684.551 676.542 598.206 686.677 423.38ZM260.739 693.265C276.096 685.706 296.205 670.903 319.692 647.715C337.426 630.207 356.071 608.933 374.971 584.454C314.39 605.571 257.703 619.826 209.58 626.416C199.004 627.864 188.721 628.959 178.803 629.668C198.326 649.461 219.383 666.22 240.341 680.318C247.17 684.912 253.988 689.224 260.739 693.265Z" fill="white"/>
<path fill-rule="evenodd" clip-rule="evenodd" d="M461.302 501.542C471.699 484.194 481.922 466.102 491.867 447.364C540.822 355.12 573.017 266.082 585.854 197.089C592.295 162.471 593.641 134.052 590.491 113.248C587.27 91.9743 580.122 82.7981 573.662 79.3727C567.202 75.9473 555.592 75.1784 536.164 84.4428C528.182 88.2491 519.531 93.4658 510.325 100.071L492.374 93.8964L492.364 93.8931L492.363 93.8929L492.311 93.8748C490.697 93.3197 489.108 92.7731 487.543 92.2351C526.127 61.6088 559.951 49.4658 583.038 61.7065C641.718 92.8191 608.81 269.678 509.537 456.733C504.134 466.914 498.645 476.915 493.087 486.721C572.249 448.487 639.054 406.108 685.212 367.011C711.805 344.486 730.641 323.807 741.279 306.4C752.314 288.344 752.02 278.229 749.848 273.352C747.676 268.474 740.356 261.492 719.561 257.63C710.273 255.906 699.286 255.02 686.735 255.037C686.58 247.908 686.38 241.247 686.124 235.035C729.394 234.889 758.956 244.641 768.114 265.206C792.603 320.197 662.095 432.039 475.217 517.196C382.436 670.141 275.641 766.716 223.537 739.09C200.807 727.039 191.819 693.12 195.107 645.212C201.468 650.921 207.937 656.341 214.463 661.482C214.371 671.16 214.921 679.873 216.083 687.549C219.305 708.822 226.452 717.998 232.913 721.424C239.373 724.849 250.983 725.618 270.411 716.354C289.411 707.293 312.196 690.242 337.26 665.498C371.07 632.118 407.515 586.249 442.719 531.485C259.61 609.08 96.3356 629.188 72.4023 575.444C63.7419 555.997 74.4668 529.439 100.215 499.465C102.528 507.093 105.099 514.502 107.904 521.698C104.582 526.044 101.692 530.235 99.237 534.251C88.2021 552.306 88.4964 562.422 90.6685 567.299C92.8405 572.176 100.16 579.159 120.955 583.02C141.004 586.743 168.964 586.555 203.483 581.828C272.246 572.412 362.405 545.652 457.237 503.363C458.595 502.758 459.95 502.151 461.302 501.542Z" fill="white"/>
</svg>
